<?xml version="1.0" standalone="no"?>
<!DOCTYPE svg PUBLIC "-//W3C//DTD SVG 20010904//EN"
 "http://www.w3.org/TR/2001/REC-SVG-20010904/DTD/svg10.dtd">
<svg version="1.0" xmlns="http://www.w3.org/2000/svg"
 width="1080.000000pt" height="1080.000000pt" viewBox="0 0 1080.000000 1080.000000"
 preserveAspectRatio="xMidYMid meet">

<g transform="translate(0.000000,1080.000000) scale(0.100000,-0.100000)"
fill="#000000" stroke="none">
<path d="M4030 8760 c-746 -49 -1399 -320 -1925 -797 -507 -461 -853 -1131
-965 -1870 -58 -389 -60 -829 -4 -1228 72 -514 253 -1002 516 -1395 284 -424
644 -737 1118 -973 428 -213 809 -302 1350 -314 376 -8 643 15 950 84 564 125
1086 449 1483 920 61 74 68 85 56 100 -34 42 -514 558 -539 580 -15 13 -58 37
-94 54 -60 28 -74 31 -149 28 -108 -5 -158 -30 -311 -158 -317 -264 -625 -370
-1131 -388 -349 -12 -612 42 -885 183 -380 195 -668 536 -834 985 -131 356
-177 844 -121 1298 49 393 175 737 371 1012 78 110 248 279 359 358 104 73
314 179 429 216 366 118 817 114 1214 -10 156 -49 236 -88 409 -197 208 -132
269 -165 343 -184 118 -30 253 0 342 77 29 24 141 170 280 362 127 177 236
328 242 336 12 16 -59 86 -229 226 -474 390 -993 611 -1600 681 -159 18 -505
25 -675 14z"/>
<path d="M4635 7059 c-259 -35 -480 -155 -600 -323 -94 -133 -135 -258 -135
-410 0 -200 77 -369 220 -484 30 -25 56 -48 58 -51 1 -3 -18 -17 -42 -30 -63
-33 -178 -148 -231 -230 -99 -153 -141 -303 -132 -465 21 -351 241 -622 597
-734 155 -49 215 -57 430 -56 197 1 209 2 323 32 209 56 359 142 484 276 134
143 203 320 204 518 0 157 -32 279 -110 413 -42 73 -169 201 -233 235 -27 14
-48 28 -48 31 0 4 15 13 33 20 55 23 190 166 225 239 88 182 83 396 -13 597
-102 210 -297 347 -580 409 -85 19 -353 27 -450 13z m320 -506 c160 -84 192
-253 75 -387 -18 -20 -52 -48 -77 -62 -46 -28 -71 -28 -188 -2 -182 40 -279
186 -214 323 26 55 95 118 152 139 61 23 199 16 252 -11z m-142 -1093 c159
-35 260 -97 312 -191 27 -48 30 -63 29 -139 -1 -129 -48 -213 -150 -267 -118
-62 -255 -68 -369 -14 -83 38 -128 81 -165 153 -62 124 -32 263 82 385 95 100
114 106 261 73z"/>
<path d="M6477 6325 l-557 -695 0 -275 0 -275 94 0 c66 0 97 4 105 13 6 8 7
17 3 21 -4 4 0 6 8 4 8 -1 14 3 12 10 -1 6 3 11 10 10 6 -2 17 7 24 20 6 13
26 38 43 56 17 18 28 36 24 40 -5 4 -1 6 7 4 8 -1 14 3 12 10 -1 6 4 11 10 10
7 -2 12 3 10 10 -1 6 4 11 10 10 7 -2 12 3 10 10 -1 6 3 11 9 10 6 -2 19 11
29 27 10 17 23 29 29 27 6 -1 10 4 9 10 -2 7 3 12 9 10 7 -1 12 4 10 10 -1 7
4 12 10 11 7 -2 12 3 10 10 -1 6 5 11 13 9 8 -2 12 0 7 4 -4 4 1 16 10 26 9
10 17 27 18 36 1 16 564 726 571 720 1 -2 4 -25 5 -50 2 -38 5 -45 16 -37 7 6
10 15 7 20 -3 5 0 8 8 7 7 -2 12 3 11 9 -2 7 2 12 9 10 6 -1 17 9 25 23 7 14
13 21 13 15 0 -5 6 1 13 15 8 14 19 24 25 22 7 -1 11 4 10 10 -2 7 3 12 10 10
6 -1 11 4 10 10 -2 7 3 12 10 10 6 -1 11 4 10 10 -2 7 3 12 10 10 8 -1 11 1 8
6 -3 5 8 22 24 37 16 15 27 33 23 38 -3 6 -1 7 4 4 13 -8 46 27 36 37 -5 4 -2
6 6 4 8 -1 20 8 28 22 7 14 13 21 13 15 0 -5 6 1 13 15 8 14 20 24 27 22 11
-3 11 0 -1 14 -8 10 -9 15 -3 11 14 -8 47 26 37 37 -5 4 -1 6 7 4 8 -1 14 3
12 10 -1 6 4 11 10 10 7 -2 12 3 10 10 -1 6 3 11 10 10 6 -2 17 8 25 22 7 14
13 21 13 15 0 -5 6 1 13 15 8 14 19 24 25 22 7 -1 11 4 10 10 -2 7 3 12 10 10
6 -1 11 4 10 10 -2 7 3 12 10 10 8 -1 11 2 8 6 -7 12 28 44 39 35 4 -5 5 -3 2
3 -3 6 7 24 23 39 16 15 27 32 24 37 -3 5 0 7 8 6 7 -2 12 3 10 10 -1 6 3 11
10 10 6 -2 17 7 23 19 7 13 15 20 18 16 4 -3 7 0 7 9 0 8 11 25 25 38 14 13
25 32 25 42 0 17 -19 18 -398 18 l-397 0 -558 -695z"/>
<path d="M8801 3569 c-86 -17 -222 -92 -286 -158 -16 -17 -33 -31 -37 -31 -5
0 -8 38 -8 83 0 46 -3 87 -7 90 -3 4 -18 -3 -31 -15 -14 -13 -21 -16 -17 -8 6
11 3 10 -12 -3 -11 -9 -23 -14 -27 -10 -4 5 -6 3 -4 -4 2 -6 -1 -12 -7 -13 -5
-1 -17 -8 -25 -15 -8 -7 -19 -14 -25 -15 -5 -1 -9 -6 -8 -10 2 -5 -6 -7 -17
-5 -11 2 -19 0 -17 -5 1 -4 -2 -8 -7 -8 -5 0 -12 -4 -15 -9 -15 -19 -74 -66
-61 -48 14 19 14 19 -6 2 -11 -9 -24 -14 -28 -10 -4 5 -6 1 -4 -7 2 -8 -3 -14
-10 -12 -6 1 -11 -4 -10 -10 2 -7 -3 -12 -10 -10 -6 1 -11 -4 -10 -10 2 -7 -3
-12 -9 -10 -7 1 -13 -5 -13 -14 0 -8 -4 -13 -8 -10 -5 3 -24 -10 -42 -29 -18
-19 -38 -31 -43 -28 -6 3 -7 1 -3 -5 3 -6 2 -13 -4 -17 -6 -4 -10 -115 -10
-311 l0 -304 -55 0 -55 0 0 -160 0 -160 118 0 c64 0 242 -3 395 -7 l277 -6 0
166 0 167 -91 0 -90 0 3 238 c3 208 5 242 22 275 27 55 69 81 132 82 60 0 97
-21 129 -76 19 -32 20 -55 23 -441 l3 -408 320 0 319 0 0 165 0 164 -57 3 -58
3 -6 315 c-6 337 -9 363 -64 470 -72 140 -259 216 -444 179z"/>
<path d="M7499 2583 c-12 -15 -12 -16 1 -8 8 4 4 -4 -10 -20 -14 -16 -18 -25
-10 -20 8 5 4 -4 -10 -20 -14 -16 -20 -25 -13 -22 8 5 8 1 0 -17 -7 -13 -16
-22 -21 -19 -5 4 -6 2 -3 -4 3 -5 0 -22 -8 -36 -8 -15 -15 -31 -17 -35 -2 -4
-6 -6 -9 -5 -3 1 -6 -4 -6 -12 0 -8 4 -12 8 -10 4 3 2 -6 -4 -19 -7 -13 -15
-22 -18 -20 -4 2 -6 -4 -5 -13 3 -16 18 -18 134 -21 l132 -3 0 161 0 160 -64
0 c-48 0 -67 -4 -77 -17z"/>
</g>
</svg>
