<svg xmlns="http://www.w3.org/2000/svg" width="1080" height="1080" viewBox="0 0 1080 1080">
<style>
@import url("https://css.fonts.pc-cdn.eu/css/?family=Lato"); 
@import url("https://css.fonts.pc-cdn.eu/css-cnc/?family=ChunkFive-Regular");


#DASCE {}
#ACHTVIER {}
#EFHA {display: block;}
#ELEM {display: none;}
</style>

<defs>
    <radialGradient id="r84" cx="1.2" cy="0" r="1">
        <stop offset="0.15" stop-color="#CDBE70" />
        <stop offset="1" stop-color="#104E8B" />
    </radialGradient>

    <radialGradient id="rFHLM" cx="0.9" cy="0.09" r="1">
        <stop offset="0" stop-color="#8E388E" />
        <stop offset="0.818" stop-color="#CDBE70" />
        <stop offset="1" stop-color="#104E8B" />
    </radialGradient>
</defs>


<!--   C   -->
<g id="DASCE" transform="translate(0.000000,1080.000000) scale(0.100000,-0.100000)"
fill="#1E4A90"  stroke="none">
<path d="M3440 8390 c-746 -49 -1399 -320 -1925 -797 -507 -461 -853 -1131
-965 -1870 -58 -389 -60 -829 -4 -1228 72 -514 253 -1002 516 -1395 284 -424
644 -737 1118 -973 428 -213 809 -302 1350 -314 376 -8 643 15 950 84 564 125
1086 449 1483 920 61 74 68 85 56 100 -34 42 -514 558 -539 580 -15 13 -58 37
-94 54 -60 28 -74 31 -149 28 -108 -5 -158 -30 -311 -158 -317 -264 -625 -370
-1131 -388 -349 -12 -612 42 -885 183 -380 195 -668 536 -834 985 -131 356
-177 844 -121 1298 49 393 175 737 371 1012 78 110 248 279 359 358 104 73
314 179 429 216 366 118 817 114 1214 -10 156 -49 236 -88 409 -197 208 -132
269 -165 343 -184 118 -30 253 0 342 77 29 24 141 170 280 362 127 177 236
328 242 336 12 16 -59 86 -229 226 -474 390 -993 611 -1600 681 -159 18 -505
25 -675 14z"/>
</g>

<!--   84   -->
<g id="ACHTVIER" transform="translate(0.000000,1080.000000) scale(0.100000,-0.100000)"
fill="url(#r84)" stroke="none">
<path d="M4079 6690 c-245 -28 -439 -118 -578 -266 -210 -224 -249 -552 -97
-803 35 -57 131 -157 174 -180 12 -6 22 -15 22 -19 0 -4 -20 -18 -45 -31 -102
-54 -240 -212 -301 -346 -61 -133 -83 -270 -64 -405 62 -456 456 -741 1020
-740 431 2 778 186 930 494 60 120 80 205 80 341 0 156 -34 282 -111 412 -43
71 -160 189 -227 228 -28 17 -52 32 -52 35 0 3 25 21 56 40 125 78 230 235
254 381 15 86 8 208 -15 300 -72 280 -314 484 -645 544 -100 18 -307 26 -401
15z m213 -481 c135 -29 221 -122 221 -239 0 -92 -41 -160 -137 -231 -45 -34
-74 -36 -183 -13 -169 35 -252 115 -253 243 0 118 100 221 240 244 45 8 58 7
112 -4z m-60 -1119 c116 -25 192 -63 255 -125 78 -79 102 -186 68 -303 -72
-242 -448 -302 -629 -101 -56 61 -78 119 -79 203 -2 112 53 214 161 302 63 52
88 54 224 24z"/>
<path d="M6324 6497 c-67 -84 -317 -397 -558 -696 l-436 -543 0 -274 0 -274
560 0 560 0 0 -130 0 -130 -125 0 -125 0 0 -250 0 -250 625 0 625 0 0 250 0
250 -105 0 -105 0 0 130 0 130 105 0 105 0 0 205 0 205 -105 0 -105 0 0 765 0
765 -397 0 -398 -1 -121 -152z m126 -1012 l0 -365 -291 0 c-244 0 -290 2 -286
14 6 16 566 716 573 716 2 0 4 -164 4 -365z"/>
</g>

<!--   fh   -->
<g id="EFHA" transform="translate(0.000000,1080.000000) scale(0.100000,-0.100000)"
fill="url(#rFHLM)" stroke="none">
<path d="M6735 3821 c-168 -41 -268 -138 -310 -298 -10 -39 -15 -107 -15 -210
l0 -153 -55 0 -55 0 0 -160 0 -160 55 0 55 0 0 -305 0 -305 -50 0 -50 0 0
-165 0 -165 373 2 372 3 3 162 2 162 -77 3 -78 3 0 300 0 300 113 3 112 3 0
159 0 159 -112 3 -113 3 0 135 c0 152 10 192 55 210 27 11 101 6 145 -10 18
-7 29 8 95 134 l75 141 3 -152 3 -153 54 0 55 0 -2 -617 -3 -618 -52 -3 -53
-3 0 -165 0 -164 395 0 395 0 0 165 0 165 -91 0 -90 0 3 238 c3 227 4 239 26
278 31 53 74 78 134 78 58 0 95 -24 123 -80 19 -37 20 -62 23 -441 l3 -403
320 0 319 0 0 165 0 165 -53 0 -54 0 -6 283 c-6 305 -18 397 -63 494 -62 130
-194 203 -369 203 -110 0 -255 -61 -355 -148 l-50 -44 0 391 0 391 -304 0
c-190 0 -306 -4 -308 -10 -2 -6 -20 -4 -48 4 -152 46 -371 58 -495 27z"/>
</g>

<!--   lm   -->
<g id="ELEM" transform="translate(0.000000,1080.000000) scale(0.100000,-0.100000)"
fill="url(#rFHLM)" stroke="none">
<path d="M6060 3635 l0 -165 50 0 50 0 0 -620 0 -620 -55 0 -55 0 2 -162 3
-163 368 -3 367 -2 0 165 0 165 -75 0 -75 0 0 785 0 785 -290 0 -290 0 0 -165z"/>
<path d="M7674 3191 c-59 -15 -122 -52 -187 -111 l-65 -60 -27 70 -27 70 -239
0 -239 0 0 -165 0 -165 55 0 55 0 0 -300 0 -300 -55 0 -55 0 2 -162 3 -163
373 -3 372 -2 0 165 0 165 -75 0 -75 0 0 255 c0 294 4 315 67 342 54 22 101 9
128 -37 19 -34 20 -53 23 -462 l3 -428 324 0 325 0 0 170 0 170 -75 0 -75 0 0
233 c0 127 5 248 10 268 27 98 146 130 197 52 16 -25 18 -65 23 -458 l5 -430
318 -3 317 -2 0 170 0 170 -59 0 -58 0 -6 268 c-6 287 -16 359 -62 460 -40 88
-86 137 -168 177 -193 94 -412 62 -571 -85 l-42 -39 -44 51 c-81 95 -265 150
-396 119z"/>
</g>



<script>
pattern09="[0-9]*";

const queryString = window.location.search;
console.log(queryString);
const urlParams = new URLSearchParams(queryString);

textA = urlParams.get('lc');
if (textA =="1") {
var x = document.getElementById("EFHA");
    x.style.display = "none";
var y = document.getElementById("ELEM");
    y.style.display = "block";
} else {
  if window.location.hostname().include("c84lm.cf"){
    var x = document.getElementById("EFHA");
       x.style.display = "none";
    var y = document.getElementById("ELEM");
       y.style.display = "block";
  }
}

}
document.getElementById("FHLM").innerHTML = textA;
</script>
</svg>
