<?xml version="1.0" standalone="no"?>
<!DOCTYPE svg PUBLIC "-//W3C//DTD SVG 20010904//EN"
 "http://www.w3.org/TR/2001/REC-SVG-20010904/DTD/svg10.dtd">
<svg version="1.0" xmlns="http://www.w3.org/2000/svg"
 width="1080.000000pt" height="1080.000000pt" viewBox="0 0 1080.000000 1080.000000"
 preserveAspectRatio="xMidYMid meet">

<g transform="translate(0.000000,1080.000000) scale(0.100000,-0.100000)"
fill="#000000" stroke="none">
<path d="M3430 8393 c-106 -6 -312 -33 -443 -59 -471 -91 -942 -307 -1319
-606 -123 -97 -358 -330 -452 -448 -226 -283 -415 -636 -534 -996 -247 -748
-240 -1680 18 -2447 260 -770 742 -1337 1445 -1699 453 -233 895 -330 1495
-330 393 1 667 34 970 117 412 114 799 336 1123 644 116 111 299 319 295 335
-2 8 -125 146 -275 308 -230 250 -282 300 -333 327 -106 57 -223 60 -327 10
-24 -11 -91 -61 -151 -111 -165 -139 -289 -213 -474 -287 -86 -34 -251 -75
-363 -91 -138 -19 -461 -30 -575 -19 -528 51 -957 307 -1244 743 -125 189
-248 491 -295 721 -84 414 -75 908 23 1305 110 442 337 805 645 1034 391 290
927 392 1466 279 246 -51 392 -110 605 -245 295 -185 340 -204 474 -195 100 6
160 31 227 94 44 41 500 658 515 696 11 31 -275 274 -496 421 -436 290 -864
440 -1404 491 -142 13 -454 18 -616 8z"/>
<path d="M4002 6684 c-331 -60 -566 -243 -659 -513 -35 -99 -43 -274 -19 -372
27 -106 80 -202 154 -278 37 -37 78 -74 91 -82 l23 -15 -43 -28 c-124 -82
-222 -193 -289 -329 -145 -295 -90 -643 138 -880 134 -140 357 -244 594 -278
108 -15 311 -15 416 0 581 85 922 530 793 1034 -47 180 -184 366 -327 443 -19
10 -34 21 -34 24 0 3 26 21 56 40 106 66 203 202 239 336 21 77 21 228 0 324
-59 267 -267 468 -566 549 -153 42 -415 53 -567 25z m325 -489 c62 -18 139
-84 164 -140 48 -104 5 -224 -109 -305 -50 -36 -57 -38 -105 -33 -216 22 -337
116 -337 258 0 39 34 112 68 148 27 29 86 64 132 78 42 13 134 10 187 -6z
m-67 -1116 c105 -27 157 -55 221 -118 41 -42 59 -68 69 -106 44 -157 -21 -306
-162 -371 -53 -24 -78 -29 -163 -32 -136 -5 -196 17 -282 103 -50 50 -65 72
-78 120 -41 140 17 285 157 396 48 38 52 39 106 33 32 -4 91 -15 132 -25z"/>
<path d="M6433 6638 c-12 -13 -265 -326 -562 -697 l-541 -675 0 -278 0 -278
555 0 555 0 0 -125 0 -125 -120 0 -120 0 2 -257 3 -258 625 0 625 0 0 255 0
255 -102 3 -103 3 0 124 0 125 100 0 100 0 0 210 0 210 -100 0 -100 0 -2 763
-3 762 -396 3 -395 2 -21 -22z m7 -1158 l0 -350 -280 0 c-154 0 -280 2 -280 5
0 7 551 695 556 695 2 0 4 -157 4 -350z"/>
<path d="M6738 3824 c-167 -40 -282 -153 -318 -309 -7 -28 -11 -116 -11 -197
l1 -147 -52 -3 -53 -3 -3 -162 -2 -162 52 -3 53 -3 3 -297 2 -298 -50 0 -50 0
0 -170 0 -170 375 0 375 0 -2 168 -3 167 -72 3 -73 3 0 299 0 300 115 0 115 0
-2 163 -3 162 -112 3 -113 3 0 143 c0 132 2 146 22 171 20 26 24 27 92 23 39
-3 78 -8 87 -12 13 -6 31 22 90 136 l74 143 3 -152 3 -153 49 0 50 0 0 -615 0
-615 -50 0 -50 0 0 -170 0 -170 395 0 395 0 0 170 0 170 -90 0 -90 0 0 208 c0
245 9 292 67 342 34 30 40 32 99 28 71 -4 97 -21 123 -78 13 -30 16 -96 19
-438 l4 -402 321 2 322 3 0 165 0 165 -56 3 -56 3 -6 292 c-4 253 -8 302 -26
370 -39 148 -90 214 -211 271 -62 29 -71 31 -186 31 l-121 0 -95 -47 c-52 -26
-118 -68 -147 -94 l-51 -46 0 391 0 391 -305 0 c-175 0 -305 -4 -305 -9 0 -5
-19 -3 -43 4 -142 43 -385 57 -499 29z"/>
</g>
</svg>
